<svg xmlns="http://www.w3.org/2000/svg" viewBox="0 0 512 512" width="512" height="512" role="img" aria-label="BTImpl app icon">
  <defs>
    <linearGradient id="bg" x1="0" y1="0" x2="1" y2="1">
      <stop offset="0" stop-color="#0E1834"></stop>
      <stop offset="1" stop-color="#070D1E"></stop>
    </linearGradient>
    <linearGradient id="top" x1="0" y1="0" x2="0.35" y2="1">
      <stop offset="0" stop-color="#5A6CF7"></stop><stop offset="1" stop-color="#4577F0"></stop>
    </linearGradient>
    <linearGradient id="bot" x1="0" y1="0" x2="1" y2="1">
      <stop offset="0" stop-color="#3D93E8"></stop><stop offset="1" stop-color="#58CBFB"></stop>
    </linearGradient>
  </defs>
  <rect width="512" height="512" rx="116" fill="url(#bg)"></rect>
  <g transform="translate(179,108) scale(1.12)">
    <g transform="skewX(-9)">
      <path d="M18 0 H130 A55 55 0 0 1 130 110 H18 A18 18 0 0 1 0 92 V18 A18 18 0 0 1 18 0 Z" fill="url(#top)"></path>
      <path d="M18 126 H130 A69 69 0 0 1 130 264 H18 A18 18 0 0 1 0 246 V144 A18 18 0 0 1 18 126 Z" fill="url(#bot)"></path>
    </g>
  </g>
</svg>